<svg id="Layer_1" enable-background="new 0 0 512.004 512.004" height="512" viewBox="0 0 512.004 512.004" width="512" xmlns="http://www.w3.org/2000/svg"><g><g><path d="m504.495 191.702c-.966-50.472-43.187-90.526-93.662-88.699-7.393.265-14.359-3.749-17.906-10.241-21.943-40.164-64.57-67.407-113.562-67.407-50.241 0-93.766 28.663-115.172 70.52-6.235 12.192-18.661 10.581-23.965 10.581-38.951 0-72.026 25.094-83.978 59.994-1.986 5.798-6.734 10.156-12.516 12.188-21.735 7.639-37.131 28.737-36.184 53.294 1.129 29.29 26.062 52.06 55.374 52.06h349.277c50.759 0 93.265-41.54 92.294-92.29z" fill="#9dc6fb"/><path d="m122.297 231.932c-.947-24.557 14.449-45.655 36.184-53.294 5.782-2.032 10.53-6.391 12.516-12.188 11.952-34.899 45.027-59.994 83.978-59.994 5.305 0 17.73 1.611 23.965-10.581 12.624-24.685 32.946-44.774 57.797-57.109-17.29-8.575-36.764-13.411-57.372-13.411-50.241 0-93.766 28.663-115.172 70.52-6.235 12.192-18.661 10.581-23.965 10.581-38.951 0-72.026 25.094-83.978 59.994-1.986 5.798-6.734 10.156-12.516 12.188-21.734 7.639-37.131 28.737-36.184 53.294 1.129 29.29 26.062 52.06 55.374 52.06h114.747c-29.312 0-54.245-22.77-55.374-52.06z" fill="#80b4fb"/><g fill="#ffe181"><circle cx="258.431" cy="462.273" r="24.398"/><circle cx="419.381" cy="399.148" r="19.349"/><circle cx="97.481" cy="399.148" r="19.349"/><circle cx="476.054" cy="326.126" r="15.923"/><circle cx="41.297" cy="326.126" r="15.923"/></g><path d="m255.957 462.273c0-9.531 5.468-17.78 13.436-21.795-3.297-1.661-7.018-2.603-10.962-2.603-13.474 0-24.397 10.923-24.397 24.398 0 13.474 10.923 24.398 24.397 24.398 3.944 0 7.665-.941 10.962-2.603-7.967-4.015-13.436-12.264-13.436-21.795z" fill="#fec458"/><path d="m418.956 399.148c0-7.247 3.99-13.553 9.887-16.868-2.799-1.573-6.022-2.48-9.461-2.48-10.686 0-19.349 8.663-19.349 19.349s8.663 19.349 19.349 19.349c3.439 0 6.663-.907 9.461-2.48-5.897-3.316-9.887-9.623-9.887-16.87z" fill="#fec458"/><path d="m97.055 399.148c0-7.247 3.99-13.553 9.887-16.868-2.799-1.573-6.022-2.48-9.461-2.48-10.686 0-19.349 8.663-19.349 19.349s8.663 19.349 19.349 19.349c3.439 0 6.663-.907 9.461-2.48-5.897-3.316-9.887-9.623-9.887-16.87z" fill="#fec458"/><path d="m476.054 326.126c0-5.89 3.207-11.021 7.961-13.775-2.344-1.358-5.058-2.148-7.961-2.148-8.794 0-15.923 7.129-15.923 15.923s7.129 15.923 15.923 15.923c2.904 0 5.617-.79 7.961-2.148-4.754-2.754-7.961-7.884-7.961-13.775z" fill="#fec458"/><path d="m41.297 326.126c0-5.89 3.207-11.021 7.961-13.775-2.344-1.358-5.058-2.148-7.961-2.148-8.794 0-15.923 7.129-15.923 15.923s7.129 15.923 15.923 15.923c2.904 0 5.617-.79 7.961-2.148-4.755-2.754-7.961-7.884-7.961-13.775z" fill="#fec458"/></g><g><path d="m356.827 41.913c-22.858-15.731-49.646-24.047-77.47-24.047-51.626 0-98.316 28.587-121.851 74.605-3.798 7.43-10.626 6.496-17.287 6.496-41.146 0-77.746 26.147-91.074 65.064-1.178 3.441-4.061 6.19-7.907 7.542-25.688 9.029-42.242 33.406-41.19 60.659 1.281 33.263 29.427 59.271 62.868 59.271h22.527v27.112h-21.936c-3.135-9.245-11.89-15.92-22.181-15.92-12.914 0-23.421 10.506-23.421 23.42 0 12.915 10.507 23.421 23.421 23.421 10.291 0 19.047-6.675 22.181-15.921h29.436c4.143 0 7.5-3.358 7.5-7.5v-34.612h67.795v100.124h-44.964c-3.254-11.163-13.572-19.346-25.772-19.346-14.804 0-26.847 12.043-26.847 26.846s12.043 26.846 26.847 26.846c12.2 0 22.518-8.183 25.772-19.346h52.464c4.143 0 7.5-3.358 7.5-7.5v-107.624h67.693v139.745c-13.979 3.383-24.395 15.992-24.395 30.995 0 17.587 14.308 31.895 31.895 31.895s31.895-14.308 31.895-31.895c0-15.004-10.416-27.613-24.395-30.995v-139.745h16.347c4.143 0 7.5-3.358 7.5-7.5s-3.357-7.5-7.5-7.5h-219.362c-25.447 0-46.927-20.119-47.88-44.849-.796-20.638 11.732-39.095 31.177-45.929 8.207-2.885 14.448-9.021 17.124-16.834 11.251-32.852 42.147-54.924 76.883-54.924 5.147 0 22.151 1.942 30.643-14.666 20.957-40.979 62.529-66.435 108.495-66.435 24.772 0 48.62 7.401 68.966 21.403 3.413 2.349 8.082 1.486 10.43-1.926 2.347-3.412 1.485-8.082-1.927-10.43zm-315.501 292.623c-4.644 0-8.421-3.778-8.421-8.421s3.777-8.42 8.421-8.42c4.643 0 8.42 3.777 8.42 8.42s-3.778 8.421-8.42 8.421zm56.176 76.437c-6.532 0-11.847-5.314-11.847-11.846s5.314-11.846 11.847-11.846c6.531 0 11.846 5.314 11.846 11.846s-5.314 11.846-11.846 11.846zm177.824 51.271c0 9.316-7.579 16.895-16.895 16.895-9.315 0-16.895-7.579-16.895-16.895s7.579-16.895 16.895-16.895 16.895 7.579 16.895 16.895z"/><path d="m412.193 276.503h-94.915c-4.143 0-7.5 3.358-7.5 7.5s3.357 7.5 7.5 7.5h16.348v107.624c0 4.142 3.357 7.5 7.5 7.5h52.463c3.254 11.163 13.572 19.346 25.773 19.346 14.803 0 26.846-12.043 26.846-26.846s-12.043-26.846-26.846-26.846c-12.2 0-22.519 8.183-25.773 19.346h-44.963v-100.124h63.567c1.575 0 3.147-.041 4.716-.117v34.729c0 4.142 3.357 7.5 7.5 7.5h29.435c3.135 9.246 11.891 15.921 22.182 15.921 12.914 0 23.421-10.506 23.421-23.421 0-12.914-10.507-23.42-23.421-23.42-10.291 0-19.047 6.675-22.182 15.92h-21.935v-29.108c45.637-9.282 81.006-49.397 80.077-97.937-1.047-54.681-46.681-98.044-101.431-96.051-4.496.166-8.86-2.327-11.055-6.342-4.295-7.86-9.397-15.342-15.167-22.237-2.658-3.178-7.389-3.598-10.564-.939-3.177 2.658-3.598 7.388-.939 10.564 5.139 6.143 9.684 12.805 13.507 19.804 4.74 8.677 14.012 14.158 23.816 14.158.313 0 .628-.006.943-.017 46.273-1.674 85.004 34.964 85.892 81.348.898 46.846-38.546 84.645-84.795 84.645zm7.168 110.778c6.531 0 11.846 5.314 11.846 11.846s-5.314 11.846-11.846 11.846-11.847-5.314-11.847-11.846 5.315-11.846 11.847-11.846zm56.665-69.587c4.644 0 8.421 3.777 8.421 8.42s-3.777 8.421-8.421 8.421-8.421-3.778-8.421-8.421 3.777-8.42 8.421-8.42z"/></g></g></svg>