<?xml version="1.0" encoding="iso-8859-1"?>
<!-- Generator: Adobe Illustrator 19.0.0, SVG Export Plug-In . SVG Version: 6.00 Build 0)  -->
<svg version="1.1" id="Layer_1" xmlns="http://www.w3.org/2000/svg" xmlns:xlink="http://www.w3.org/1999/xlink" x="0px" y="0px"
	 viewBox="0 0 512.001 512.001" style="enable-background:new 0 0 512.001 512.001;" xml:space="preserve">
<path style="fill:#00BB64;" d="M489.735,266.61v42.73h13.973v63.849l-2.235,3.628c-1.233,2.005-13.141,20.097-50.117,37.267
	c-47.03,21.831-112.763,32.907-195.356,32.907s-148.326-11.076-195.356-32.907c-36.976-17.17-48.884-35.262-50.117-37.267
	l-2.235-3.628V309.34h13.973v-42.73L7.691,244.619c-7.257-10.956-9.512-24.527-6.194-37.247
	c3.328-12.72,11.938-23.455,23.625-29.459L234.851,70.122c6.625-3.408,13.882-5.112,21.149-5.112c7.267,0,14.524,1.704,21.149,5.112
	l209.729,107.791c11.687,6.004,20.297,16.739,23.625,29.459c3.318,12.72,1.062,26.291-6.194,37.247L489.735,266.61z"/>
<path style="fill:#008C48;" d="M489.735,266.61v42.73h13.973v63.849l-2.235,3.628c-1.233,2.005-13.141,20.097-50.117,37.267
	c-47.03,21.831-112.763,32.907-195.356,32.907V65.01c7.267,0,14.524,1.704,21.149,5.112l209.729,107.791
	c11.687,6.004,20.297,16.739,23.625,29.459c3.318,12.72,1.062,26.291-6.194,37.247L489.735,266.61z"/>
<path style="fill:#008040;" d="M22.265,266.61v17.122h467.47V266.61l14.574-21.991c7.257-10.956,9.512-24.527,6.194-37.247
	c-3.328-12.72-11.938-23.455-23.625-29.459L277.15,70.122c-6.625-3.408-13.882-5.112-21.149-5.112
	c-7.267,0-14.524,1.704-21.149,5.112L25.122,177.913c-11.687,6.004-20.297,16.739-23.625,29.459
	c-3.318,12.72-1.062,26.291,6.194,37.247L22.265,266.61z"/>
<path style="fill:#00753C;" d="M489.735,283.732V266.61l14.574-21.991c7.257-10.956,9.512-24.527,6.194-37.247
	c-3.328-12.72-11.938-23.455-23.625-29.459L277.15,70.122c-6.625-3.408-13.882-5.112-21.149-5.112v218.722H489.735z"/>
<g>
	<polygon style="fill:#FFA91E;" points="273.01,200.406 277.029,223.82 256,212.764 234.971,223.82 238.991,200.406 
		221.981,183.817 245.486,180.409 256,159.099 266.515,180.409 290.02,183.817 	"/>
	<rect x="22.262" y="266.612" style="fill:#FFA91E;" width="467.47" height="42.509"/>
</g>
<g>
	<polygon style="fill:#FF8900;" points="277.029,223.82 256,212.764 256,159.099 266.515,180.409 290.02,183.817 273.01,200.406 	
		"/>
	<rect x="255.997" y="266.612" style="fill:#FF8900;" width="233.735" height="42.509"/>
</g>
<g>
</g>
<g>
</g>
<g>
</g>
<g>
</g>
<g>
</g>
<g>
</g>
<g>
</g>
<g>
</g>
<g>
</g>
<g>
</g>
<g>
</g>
<g>
</g>
<g>
</g>
<g>
</g>
<g>
</g>
</svg>
