<?xml version="1.0" encoding="iso-8859-1"?>
<!-- Generator: Adobe Illustrator 19.0.0, SVG Export Plug-In . SVG Version: 6.00 Build 0)  -->
<svg version="1.1" id="Layer_1" xmlns="http://www.w3.org/2000/svg" xmlns:xlink="http://www.w3.org/1999/xlink" x="0px" y="0px"
	 viewBox="0 0 512 512" style="enable-background:new 0 0 512 512;" xml:space="preserve">
<path style="fill:#00BB64;" d="M459.36,218.52l-0.63,14.34H53.27l-0.63-14.34c-0.17-4.01-3.61-99.03,57.62-163.01
	C145.51,18.68,194.54,0,256,0h0.9c61.04,0.18,109.76,18.86,144.84,55.51C462.97,119.49,459.53,214.51,459.36,218.52z"/>
<path style="fill:#008C48;" d="M459.36,218.52l-0.63,14.34H256.9V0c61.04,0.18,109.76,18.86,144.84,55.51
	C462.97,119.49,459.53,214.51,459.36,218.52z"/>
<path style="fill:#424148;" d="M297.018,486.405l-5.615-29.47c45.639-8.696,79.327-35.161,100.129-78.661
	c15.869-33.184,17.918-63.648,17.937-63.953l29.942,1.857c-0.092,1.478-2.457,36.647-20.815,75.038
	C393.805,443.058,351.764,475.974,297.018,486.405z"/>
<path style="fill:#57555C;" d="M214.982,486.405c-54.746-10.431-96.787-43.347-121.579-95.188
	c-18.358-38.39-20.723-73.56-20.815-75.038l29.94-1.886c0.021,0.313,2.247,31.624,18.356,64.847
	c20.842,42.986,54.391,69.16,99.712,77.795L214.982,486.405z"/>
<polygon style="fill:#FFA91E;" points="276.29,146.17 280.87,172.86 257.8,160.73 256.9,160.26 232.93,172.86 237.51,146.17 
	218.12,127.27 244.92,123.38 256.9,99.1 257.8,100.92 268.88,123.38 295.68,127.27 "/>
<g>
	<polygon style="fill:#008040;" points="480.55,202.86 480.55,352.13 426.21,352.13 405.03,310.05 106.97,310.05 85.79,352.13 
		31.45,352.13 31.45,202.86 	"/>
	<rect x="202.79" y="435.31" style="fill:#008040;" width="106.42" height="76.69"/>
</g>
<g>
	<rect x="256.9" y="435.31" style="fill:#00753C;" width="52.31" height="76.69"/>
	<polygon style="fill:#00753C;" points="480.55,202.86 480.55,352.13 426.21,352.13 405.03,310.05 256.9,310.05 256.9,202.86 	"/>
</g>
<polygon style="fill:#FF8900;" points="276.29,146.17 280.87,172.86 257.8,160.73 256.9,160.26 256.9,99.1 257.8,100.92 
	268.88,123.38 295.68,127.27 "/>
<g>
</g>
<g>
</g>
<g>
</g>
<g>
</g>
<g>
</g>
<g>
</g>
<g>
</g>
<g>
</g>
<g>
</g>
<g>
</g>
<g>
</g>
<g>
</g>
<g>
</g>
<g>
</g>
<g>
</g>
</svg>
